<mxfile host="app.diagrams.net" modified="2023-03-24T14:50:26.647Z" agent="Mozilla/5.0 (Windows NT 10.0; Win64; x64) AppleWebKit/537.36 (KHTML, like Gecko) Chrome/111.0.0.0 Safari/537.36" etag="-0zmJzFiEEBpezwMdhZ4" version="21.1.0" type="github">
  <diagram name="Page-1" id="79OGTAMX34e8AgFN8Rgf">
    <mxGraphModel dx="478" dy="255" grid="1" gridSize="10" guides="1" tooltips="1" connect="1" arrows="1" fold="1" page="1" pageScale="1" pageWidth="1100" pageHeight="850" math="0" shadow="0">
      <root>
        <mxCell id="0" />
        <mxCell id="1" parent="0" />
        <mxCell id="zj_Jvt_yNoDV_7sDTst--29" value="" style="rounded=0;whiteSpace=wrap;html=1;fillColor=#fff2cc;strokeColor=#050000;" vertex="1" parent="1">
          <mxGeometry x="40" y="410" width="1080" height="360" as="geometry" />
        </mxCell>
        <mxCell id="zj_Jvt_yNoDV_7sDTst--30" value="" style="rounded=0;whiteSpace=wrap;html=1;fillColor=#f8cecc;strokeColor=#b85450;dashed=1;" vertex="1" parent="1">
          <mxGeometry x="50" y="570" width="140" height="130" as="geometry" />
        </mxCell>
        <mxCell id="zj_Jvt_yNoDV_7sDTst--31" value="" style="rounded=0;whiteSpace=wrap;html=1;fillColor=#d5e8d4;strokeColor=#82b366;dashed=1;" vertex="1" parent="1">
          <mxGeometry x="410" y="430" width="520" height="320" as="geometry" />
        </mxCell>
        <mxCell id="zj_Jvt_yNoDV_7sDTst--32" style="edgeStyle=orthogonalEdgeStyle;rounded=0;orthogonalLoop=1;jettySize=auto;html=1;entryX=0.008;entryY=0.546;entryDx=0;entryDy=0;entryPerimeter=0;" edge="1" parent="1" source="zj_Jvt_yNoDV_7sDTst--34" target="zj_Jvt_yNoDV_7sDTst--39">
          <mxGeometry relative="1" as="geometry" />
        </mxCell>
        <mxCell id="zj_Jvt_yNoDV_7sDTst--33" value="AXI Full" style="edgeLabel;html=1;align=center;verticalAlign=middle;resizable=0;points=[];labelBackgroundColor=none;" vertex="1" connectable="0" parent="zj_Jvt_yNoDV_7sDTst--32">
          <mxGeometry x="-0.14" y="2" relative="1" as="geometry">
            <mxPoint y="-8" as="offset" />
          </mxGeometry>
        </mxCell>
        <mxCell id="zj_Jvt_yNoDV_7sDTst--34" value="ARM A9 Core" style="rounded=0;whiteSpace=wrap;html=1;" vertex="1" parent="1">
          <mxGeometry x="60" y="600" width="120" height="80" as="geometry" />
        </mxCell>
        <mxCell id="zj_Jvt_yNoDV_7sDTst--35" style="edgeStyle=orthogonalEdgeStyle;rounded=0;orthogonalLoop=1;jettySize=auto;html=1;exitX=1;exitY=0.25;exitDx=0;exitDy=0;entryX=0;entryY=0.5;entryDx=0;entryDy=0;" edge="1" parent="1" source="zj_Jvt_yNoDV_7sDTst--39" target="zj_Jvt_yNoDV_7sDTst--45">
          <mxGeometry relative="1" as="geometry" />
        </mxCell>
        <mxCell id="zj_Jvt_yNoDV_7sDTst--36" value="AXI Full" style="edgeLabel;html=1;align=center;verticalAlign=middle;resizable=0;points=[];labelBackgroundColor=none;" vertex="1" connectable="0" parent="zj_Jvt_yNoDV_7sDTst--35">
          <mxGeometry x="0.1193" y="-1" relative="1" as="geometry">
            <mxPoint x="-16" y="-11" as="offset" />
          </mxGeometry>
        </mxCell>
        <mxCell id="zj_Jvt_yNoDV_7sDTst--37" style="edgeStyle=orthogonalEdgeStyle;rounded=0;orthogonalLoop=1;jettySize=auto;html=1;exitX=1;exitY=0.75;exitDx=0;exitDy=0;entryX=0;entryY=0.5;entryDx=0;entryDy=0;" edge="1" parent="1" source="zj_Jvt_yNoDV_7sDTst--39" target="zj_Jvt_yNoDV_7sDTst--42">
          <mxGeometry relative="1" as="geometry" />
        </mxCell>
        <mxCell id="zj_Jvt_yNoDV_7sDTst--38" value="AXI Lite" style="edgeLabel;html=1;align=center;verticalAlign=middle;resizable=0;points=[];labelBackgroundColor=none;" vertex="1" connectable="0" parent="zj_Jvt_yNoDV_7sDTst--37">
          <mxGeometry x="0.2442" y="2" relative="1" as="geometry">
            <mxPoint x="-22" y="-8" as="offset" />
          </mxGeometry>
        </mxCell>
        <mxCell id="zj_Jvt_yNoDV_7sDTst--39" value="AXI Interconnect" style="rounded=0;whiteSpace=wrap;html=1;" vertex="1" parent="1">
          <mxGeometry x="260" y="530" width="80" height="200" as="geometry" />
        </mxCell>
        <mxCell id="zj_Jvt_yNoDV_7sDTst--40" style="edgeStyle=orthogonalEdgeStyle;rounded=0;orthogonalLoop=1;jettySize=auto;html=1;entryX=0;entryY=0.75;entryDx=0;entryDy=0;" edge="1" parent="1" source="zj_Jvt_yNoDV_7sDTst--42" target="zj_Jvt_yNoDV_7sDTst--51">
          <mxGeometry relative="1" as="geometry" />
        </mxCell>
        <mxCell id="zj_Jvt_yNoDV_7sDTst--41" value="Ctrl Data" style="edgeLabel;html=1;align=center;verticalAlign=middle;resizable=0;points=[];labelBackgroundColor=none;" vertex="1" connectable="0" parent="zj_Jvt_yNoDV_7sDTst--40">
          <mxGeometry x="-0.184" relative="1" as="geometry">
            <mxPoint y="-10" as="offset" />
          </mxGeometry>
        </mxCell>
        <mxCell id="zj_Jvt_yNoDV_7sDTst--42" value="AXI Lite Slave" style="rounded=0;whiteSpace=wrap;html=1;" vertex="1" parent="1">
          <mxGeometry x="430" y="650" width="60" height="60" as="geometry" />
        </mxCell>
        <mxCell id="zj_Jvt_yNoDV_7sDTst--45" value="AXI Full Slave" style="rounded=0;whiteSpace=wrap;html=1;" vertex="1" parent="1">
          <mxGeometry x="430" y="550" width="60" height="60" as="geometry" />
        </mxCell>
        <mxCell id="zj_Jvt_yNoDV_7sDTst--49" style="edgeStyle=orthogonalEdgeStyle;rounded=0;orthogonalLoop=1;jettySize=auto;html=1;entryX=0;entryY=0.5;entryDx=0;entryDy=0;" edge="1" parent="1" source="zj_Jvt_yNoDV_7sDTst--51" target="zj_Jvt_yNoDV_7sDTst--52">
          <mxGeometry relative="1" as="geometry" />
        </mxCell>
        <mxCell id="zj_Jvt_yNoDV_7sDTst--50" value="HUB75" style="edgeLabel;html=1;align=center;verticalAlign=middle;resizable=0;points=[];labelBackgroundColor=none;" vertex="1" connectable="0" parent="zj_Jvt_yNoDV_7sDTst--49">
          <mxGeometry x="0.1717" y="3" relative="1" as="geometry">
            <mxPoint x="-3" y="-7" as="offset" />
          </mxGeometry>
        </mxCell>
        <mxCell id="zj_Jvt_yNoDV_7sDTst--51" value="LED Driver" style="rounded=0;whiteSpace=wrap;html=1;" vertex="1" parent="1">
          <mxGeometry x="830" y="530" width="80" height="200" as="geometry" />
        </mxCell>
        <mxCell id="zj_Jvt_yNoDV_7sDTst--52" value="Panel(s)" style="rounded=0;whiteSpace=wrap;html=1;" vertex="1" parent="1">
          <mxGeometry x="1000" y="580" width="100" height="100" as="geometry" />
        </mxCell>
        <mxCell id="zj_Jvt_yNoDV_7sDTst--67" value="" style="group" vertex="1" connectable="0" parent="1">
          <mxGeometry x="560" y="460" width="190" height="170" as="geometry" />
        </mxCell>
        <mxCell id="zj_Jvt_yNoDV_7sDTst--48" value="Framebuffer" style="rounded=0;whiteSpace=wrap;html=1;fillColor=#dae8fc;strokeColor=#6c8ebf;dashed=1;spacingTop=0;labelPosition=center;verticalLabelPosition=top;align=center;verticalAlign=bottom;" vertex="1" parent="zj_Jvt_yNoDV_7sDTst--67">
          <mxGeometry width="190" height="170" as="geometry" />
        </mxCell>
        <mxCell id="zj_Jvt_yNoDV_7sDTst--68" style="edgeStyle=orthogonalEdgeStyle;rounded=0;orthogonalLoop=1;jettySize=auto;html=1;exitX=1;exitY=0.5;exitDx=0;exitDy=0;entryX=-0.003;entryY=0.231;entryDx=0;entryDy=0;entryPerimeter=0;" edge="1" parent="zj_Jvt_yNoDV_7sDTst--67" source="zj_Jvt_yNoDV_7sDTst--53" target="zj_Jvt_yNoDV_7sDTst--60">
          <mxGeometry relative="1" as="geometry">
            <Array as="points" />
          </mxGeometry>
        </mxCell>
        <mxCell id="zj_Jvt_yNoDV_7sDTst--53" value="Upper BRAM" style="rounded=0;whiteSpace=wrap;html=1;" vertex="1" parent="zj_Jvt_yNoDV_7sDTst--67">
          <mxGeometry x="65" y="20" width="60" height="60" as="geometry" />
        </mxCell>
        <mxCell id="zj_Jvt_yNoDV_7sDTst--69" style="edgeStyle=orthogonalEdgeStyle;rounded=0;orthogonalLoop=1;jettySize=auto;html=1;exitX=1;exitY=0.5;exitDx=0;exitDy=0;entryX=-0.014;entryY=0.772;entryDx=0;entryDy=0;entryPerimeter=0;" edge="1" parent="zj_Jvt_yNoDV_7sDTst--67" source="zj_Jvt_yNoDV_7sDTst--54" target="zj_Jvt_yNoDV_7sDTst--60">
          <mxGeometry relative="1" as="geometry" />
        </mxCell>
        <mxCell id="zj_Jvt_yNoDV_7sDTst--54" value="Lower BRAM" style="rounded=0;whiteSpace=wrap;html=1;" vertex="1" parent="zj_Jvt_yNoDV_7sDTst--67">
          <mxGeometry x="65" y="90" width="60" height="60" as="geometry" />
        </mxCell>
        <mxCell id="zj_Jvt_yNoDV_7sDTst--57" style="edgeStyle=orthogonalEdgeStyle;rounded=0;orthogonalLoop=1;jettySize=auto;html=1;exitX=1;exitY=0.25;exitDx=0;exitDy=0;" edge="1" parent="zj_Jvt_yNoDV_7sDTst--67" source="zj_Jvt_yNoDV_7sDTst--55" target="zj_Jvt_yNoDV_7sDTst--53">
          <mxGeometry relative="1" as="geometry">
            <Array as="points">
              <mxPoint x="40" y="50" />
            </Array>
          </mxGeometry>
        </mxCell>
        <mxCell id="zj_Jvt_yNoDV_7sDTst--59" style="edgeStyle=orthogonalEdgeStyle;rounded=0;orthogonalLoop=1;jettySize=auto;html=1;exitX=1;exitY=0.75;exitDx=0;exitDy=0;entryX=0;entryY=0.5;entryDx=0;entryDy=0;" edge="1" parent="zj_Jvt_yNoDV_7sDTst--67" source="zj_Jvt_yNoDV_7sDTst--55" target="zj_Jvt_yNoDV_7sDTst--54">
          <mxGeometry relative="1" as="geometry">
            <Array as="points">
              <mxPoint x="40" y="120" />
            </Array>
          </mxGeometry>
        </mxCell>
        <mxCell id="zj_Jvt_yNoDV_7sDTst--55" value="" style="rounded=0;whiteSpace=wrap;html=1;" vertex="1" parent="zj_Jvt_yNoDV_7sDTst--67">
          <mxGeometry x="20" y="20" width="20" height="130" as="geometry" />
        </mxCell>
        <mxCell id="zj_Jvt_yNoDV_7sDTst--60" value="" style="rounded=0;whiteSpace=wrap;html=1;" vertex="1" parent="zj_Jvt_yNoDV_7sDTst--67">
          <mxGeometry x="150" y="20" width="20" height="130" as="geometry" />
        </mxCell>
        <mxCell id="zj_Jvt_yNoDV_7sDTst--46" style="edgeStyle=orthogonalEdgeStyle;rounded=0;orthogonalLoop=1;jettySize=auto;html=1;entryX=0;entryY=0.25;entryDx=0;entryDy=0;exitX=1;exitY=0.5;exitDx=0;exitDy=0;" edge="1" parent="1" source="zj_Jvt_yNoDV_7sDTst--60" target="zj_Jvt_yNoDV_7sDTst--51">
          <mxGeometry relative="1" as="geometry" />
        </mxCell>
        <mxCell id="zj_Jvt_yNoDV_7sDTst--47" value="Bit Data" style="edgeLabel;html=1;align=center;verticalAlign=middle;resizable=0;points=[];fontColor=default;labelBackgroundColor=none;" vertex="1" connectable="0" parent="zj_Jvt_yNoDV_7sDTst--46">
          <mxGeometry x="-0.2133" y="-1" relative="1" as="geometry">
            <mxPoint x="1" y="-18" as="offset" />
          </mxGeometry>
        </mxCell>
        <mxCell id="zj_Jvt_yNoDV_7sDTst--64" style="edgeStyle=orthogonalEdgeStyle;rounded=0;orthogonalLoop=1;jettySize=auto;html=1;exitX=1;exitY=0.5;exitDx=0;exitDy=0;entryX=0;entryY=0.5;entryDx=0;entryDy=0;" edge="1" parent="1" source="zj_Jvt_yNoDV_7sDTst--45" target="zj_Jvt_yNoDV_7sDTst--55">
          <mxGeometry relative="1" as="geometry" />
        </mxCell>
        <mxCell id="zj_Jvt_yNoDV_7sDTst--65" value="Pixel Data" style="edgeLabel;html=1;align=center;verticalAlign=middle;resizable=0;points=[];labelBackgroundColor=none;" vertex="1" connectable="0" parent="zj_Jvt_yNoDV_7sDTst--64">
          <mxGeometry x="-0.1012" y="-1" relative="1" as="geometry">
            <mxPoint x="-6" y="-39" as="offset" />
          </mxGeometry>
        </mxCell>
      </root>
    </mxGraphModel>
  </diagram>
</mxfile>
